<?xml version="1.0" encoding="UTF-8"?>
<!DOCTYPE svg PUBLIC "-//W3C//DTD SVG 1.1//EN" "http://www.w3.org/Graphics/SVG/1.1/DTD/svg11.dtd">
<svg xmlns="http://www.w3.org/2000/svg" version="1.1" width="512px" height="512px" style="shape-rendering:geometricPrecision; text-rendering:geometricPrecision; image-rendering:optimizeQuality; fill-rule:evenodd; clip-rule:evenodd" xmlns:xlink="http://www.w3.org/1999/xlink">
<g><path style="opacity:1" fill="#008906" d="M 234.5,11.5 C 235.541,35.4295 241.375,58.0962 252,79.5C 257.5,90.3333 265.667,98.5 276.5,104C 280.014,105.562 283.681,106.395 287.5,106.5C 287.167,108.5 286.833,110.5 286.5,112.5C 284.884,114.416 285.218,115.916 287.5,117C 283.939,120.073 280.272,122.906 276.5,125.5C 266.918,127.738 257.251,128.072 247.5,126.5C 245.004,125.42 242.67,124.086 240.5,122.5C 238.833,120.167 236.833,118.167 234.5,116.5C 232.721,108.954 230.388,101.621 227.5,94.5C 222.094,71.9228 221.594,49.2561 226,26.5C 227.315,20.5255 230.148,15.5255 234.5,11.5 Z"/></g>
<g><path style="opacity:0.997" fill="#007600" d="M 209.5,95.5 C 215.206,104.214 222.54,111.381 231.5,117C 232.749,117.74 233.749,117.573 234.5,116.5C 236.833,118.167 238.833,120.167 240.5,122.5C 237.534,120.979 234.534,119.812 231.5,119C 220.303,129.863 209.47,141.029 199,152.5C 197.842,157.307 198.676,161.64 201.5,165.5C 199.314,166.823 197.814,168.823 197,171.5C 191.021,187.951 189.521,204.617 192.5,221.5C 191.749,222.573 190.749,222.74 189.5,222C 177.711,213.555 169.878,202.388 166,188.5C 164.312,178.431 165.812,168.931 170.5,160C 162.071,159.238 153.737,157.905 145.5,156C 136.387,152.939 127.72,149.105 119.5,144.5C 109.41,137.407 101.41,128.407 95.5,117.5C 111.182,116.842 126.849,116.009 142.5,115C 156.973,110.398 171.306,105.398 185.5,100C 193.377,97.7911 201.377,96.2911 209.5,95.5 Z"/></g>
<g><path style="opacity:1" fill="#00a90c" d="M 227.5,94.5 C 230.388,101.621 232.721,108.954 234.5,116.5C 233.749,117.573 232.749,117.74 231.5,117C 222.54,111.381 215.206,104.214 209.5,95.5C 215.536,95.6401 221.536,95.3068 227.5,94.5 Z"/></g>
<g><path style="opacity:1" fill="#01cc22" d="M 399.5,133.5 C 402.187,133.336 404.854,133.503 407.5,134C 396.1,137.509 384.434,139.009 372.5,138.5C 361.454,139.098 350.787,137.765 340.5,134.5C 341.568,126.804 338.568,121.304 331.5,118C 322.027,115.641 318.36,119.141 320.5,128.5C 308.659,124.246 297.326,118.913 286.5,112.5C 286.833,110.5 287.167,108.5 287.5,106.5C 283.681,106.395 280.014,105.562 276.5,104C 265.667,98.5 257.5,90.3333 252,79.5C 241.375,58.0962 235.541,35.4295 234.5,11.5C 234.918,10.7784 235.584,10.2784 236.5,10C 249.496,9.50011 262.496,9.33344 275.5,9.5C 263.543,38.6139 265.21,66.9473 280.5,94.5C 292.152,95.3325 303.819,95.8325 315.5,96C 330.302,97.4476 343.969,102.114 356.5,110C 361.874,117.041 368.207,123.041 375.5,128C 383.08,131.603 391.08,133.436 399.5,133.5 Z"/></g>
<g><path style="opacity:1" fill="#acfdcb" d="M 302.5,106.5 C 309.12,106.605 311.787,109.771 310.5,116C 305.203,117.382 301.869,115.382 300.5,110C 300.978,108.697 301.645,107.531 302.5,106.5 Z"/></g>
<g><path style="opacity:1" fill="#08aa0d" d="M 286.5,112.5 C 297.326,118.913 308.659,124.246 320.5,128.5C 325.223,138.239 331.889,140.239 340.5,134.5C 350.787,137.765 361.454,139.098 372.5,138.5C 384.434,139.009 396.1,137.509 407.5,134C 404.854,133.503 402.187,133.336 399.5,133.5C 408.538,132.126 417.538,130.292 426.5,128C 420.074,138.214 411.074,145.048 399.5,148.5C 373.774,154.767 347.941,155.101 322,149.5C 320.93,149.528 320.097,149.861 319.5,150.5C 305.247,147.77 291.247,144.103 277.5,139.5C 273.902,137.91 270.236,136.41 266.5,135C 269.729,131.601 273.062,128.435 276.5,125.5C 280.272,122.906 283.939,120.073 287.5,117C 285.218,115.916 284.884,114.416 286.5,112.5 Z"/></g>
<g><path style="opacity:1" fill="#affdce" d="M 340.5,134.5 C 331.889,140.239 325.223,138.239 320.5,128.5C 318.36,119.141 322.027,115.641 331.5,118C 338.568,121.304 341.568,126.804 340.5,134.5 Z"/></g>
<g><path style="opacity:1" fill="#015601" d="M 240.5,122.5 C 242.67,124.086 245.004,125.42 247.5,126.5C 253.269,129.602 259.269,132.435 265.5,135C 259.27,140.738 252.936,146.238 246.5,151.5C 238.565,158.803 230.232,165.637 221.5,172C 218.5,172.667 215.5,172.667 212.5,172C 208.806,169.822 205.139,167.655 201.5,165.5C 198.676,161.64 197.842,157.307 199,152.5C 209.47,141.029 220.303,129.863 231.5,119C 234.534,119.812 237.534,120.979 240.5,122.5 Z"/></g>
<g><path style="opacity:1" fill="#017600" d="M 276.5,125.5 C 273.062,128.435 269.729,131.601 266.5,135C 270.236,136.41 273.902,137.91 277.5,139.5C 288.264,166.681 299.264,193.681 310.5,220.5C 310.074,222.285 308.908,223.285 307,223.5C 298.021,221.927 290.188,218.094 283.5,212C 267.509,196.828 254.842,179.328 245.5,159.5C 245.756,157.063 246.423,154.729 247.5,152.5C 247.376,151.893 247.043,151.56 246.5,151.5C 252.936,146.238 259.27,140.738 265.5,135C 259.269,132.435 253.269,129.602 247.5,126.5C 257.251,128.072 266.918,127.738 276.5,125.5 Z"/></g>
<g><path style="opacity:1" fill="#04cc22" d="M 277.5,139.5 C 291.247,144.103 305.247,147.77 319.5,150.5C 322.099,161.88 323.099,173.547 322.5,185.5C 321.173,193.149 319.339,200.815 317,208.5C 315.582,213.01 313.415,217.01 310.5,220.5C 299.264,193.681 288.264,166.681 277.5,139.5 Z"/></g>
<g><path style="opacity:1" fill="#aa1413" d="M 119.5,144.5 C 127.72,149.105 136.387,152.939 145.5,156C 153.737,157.905 162.071,159.238 170.5,160C 165.812,168.931 164.312,178.431 166,188.5C 169.878,202.388 177.711,213.555 189.5,222C 190.749,222.74 191.749,222.573 192.5,221.5C 204.965,200.513 219.965,181.347 237.5,164C 240.032,162.235 242.699,160.735 245.5,159.5C 254.842,179.328 267.509,196.828 283.5,212C 290.188,218.094 298.021,221.927 307,223.5C 308.908,223.285 310.074,222.285 310.5,220.5C 313.415,217.01 315.582,213.01 317,208.5C 319.339,200.815 321.173,193.149 322.5,185.5C 322.5,186.5 322.5,187.5 322.5,188.5C 325.573,189.199 328.573,190.199 331.5,191.5C 332.386,192.325 332.719,193.325 332.5,194.5C 330.914,212.424 325.248,228.924 315.5,244C 312.5,244.667 309.5,244.667 306.5,244C 295.548,240.043 285.881,234.043 277.5,226C 264.517,212.853 253.351,198.353 244,182.5C 242.951,181.483 241.784,181.316 240.5,182C 231.751,187.414 224.251,194.247 218,202.5C 208.003,215.821 199.003,229.821 191,244.5C 163.587,227.555 149.421,202.889 148.5,170.5C 130.199,171.281 113.199,167.281 97.5,158.5C 104.495,153.334 111.828,148.667 119.5,144.5 Z"/></g>
<g><path style="opacity:1" fill="#cb0703" d="M 399.5,148.5 C 407.341,153.587 415.008,158.92 422.5,164.5C 422.423,165.75 421.756,166.583 420.5,167C 417.211,167.882 413.877,168.548 410.5,169C 398.833,169.667 387.167,169.667 375.5,169C 360.316,166.962 345.316,164.295 330.5,161C 333.053,171.301 334.053,181.801 333.5,192.5C 333.672,193.492 333.338,194.158 332.5,194.5C 332.719,193.325 332.386,192.325 331.5,191.5C 328.573,190.199 325.573,189.199 322.5,188.5C 322.5,187.5 322.5,186.5 322.5,185.5C 323.099,173.547 322.099,161.88 319.5,150.5C 320.097,149.861 320.93,149.528 322,149.5C 347.941,155.101 373.774,154.767 399.5,148.5 Z"/></g>
<g><path style="opacity:1" fill="#048706" d="M 246.5,151.5 C 247.043,151.56 247.376,151.893 247.5,152.5C 246.423,154.729 245.756,157.063 245.5,159.5C 242.699,160.735 240.032,162.235 237.5,164C 219.965,181.347 204.965,200.513 192.5,221.5C 189.521,204.617 191.021,187.951 197,171.5C 197.814,168.823 199.314,166.823 201.5,165.5C 205.139,167.655 208.806,169.822 212.5,172C 215.5,172.667 218.5,172.667 221.5,172C 230.232,165.637 238.565,158.803 246.5,151.5 Z"/></g>
<g><path style="opacity:1" fill="#fe1f1e" d="M 97.5,158.5 C 113.199,167.281 130.199,171.281 148.5,170.5C 149.421,202.889 163.587,227.555 191,244.5C 199.003,229.821 208.003,215.821 218,202.5C 224.251,194.247 231.751,187.414 240.5,182C 241.784,181.316 242.951,181.483 244,182.5C 253.351,198.353 264.517,212.853 277.5,226C 285.881,234.043 295.548,240.043 306.5,244C 309.5,244.667 312.5,244.667 315.5,244C 325.248,228.924 330.914,212.424 332.5,194.5C 333.338,194.158 333.672,193.492 333.5,192.5C 348.222,198.025 361.889,205.359 374.5,214.5C 379.08,224.748 386.746,231.415 397.5,234.5C 428.659,268.744 441.492,309.077 436,355.5C 433.866,373.034 429.7,390.034 423.5,406.5C 401.291,422.868 376.624,434.368 349.5,441C 263.935,458.456 191.435,435.289 132,371.5C 90.9962,326.164 71.9962,272.831 75,211.5C 76.4406,196.017 80.6073,181.35 87.5,167.5C 87.3764,166.893 87.0431,166.56 86.5,166.5C 89.6267,163.102 93.2934,160.435 97.5,158.5 Z"/></g>
<g><path style="opacity:1" fill="#fe5c03" d="M 422.5,164.5 C 454.732,189.606 473.565,222.606 479,263.5C 482.691,307.394 473.191,348.061 450.5,385.5C 442.013,393.234 433.013,400.234 423.5,406.5C 429.7,390.034 433.866,373.034 436,355.5C 441.492,309.077 428.659,268.744 397.5,234.5C 412.782,233.951 418.282,226.285 414,211.5C 407.82,197.994 397.32,191.494 382.5,192C 373.002,196.99 370.336,204.49 374.5,214.5C 361.889,205.359 348.222,198.025 333.5,192.5C 334.053,181.801 333.053,171.301 330.5,161C 345.316,164.295 360.316,166.962 375.5,169C 387.167,169.667 398.833,169.667 410.5,169C 413.877,168.548 417.211,167.882 420.5,167C 421.756,166.583 422.423,165.75 422.5,164.5 Z"/></g>
<g><path style="opacity:1" fill="#cb0303" d="M 86.5,166.5 C 87.0431,166.56 87.3764,166.893 87.5,167.5C 80.6073,181.35 76.4406,196.017 75,211.5C 71.9962,272.831 90.9962,326.164 132,371.5C 191.435,435.289 263.935,458.456 349.5,441C 376.624,434.368 401.291,422.868 423.5,406.5C 433.013,400.234 442.013,393.234 450.5,385.5C 419.242,438.903 373.908,474.736 314.5,493C 226.332,513.496 151.165,490.996 89,425.5C 57.0677,390.291 38.0677,348.957 32,301.5C 25.9139,246.385 44.0806,201.385 86.5,166.5 Z"/></g>
<g><path style="opacity:1" fill="#f6f7f9" d="M 397.5,234.5 C 386.746,231.415 379.08,224.748 374.5,214.5C 370.336,204.49 373.002,196.99 382.5,192C 397.32,191.494 407.82,197.994 414,211.5C 418.282,226.285 412.782,233.951 397.5,234.5 Z"/></g>
<g><path style="opacity:1" fill="#f6f6f7" d="M 429.5,213.5 C 439.445,212.465 445.445,216.799 447.5,226.5C 446.592,232.959 442.926,235.459 436.5,234C 426.758,229.404 424.425,222.571 429.5,213.5 Z"/></g>
<g><path style="opacity:1" fill="#f7eff2" d="M 397.5,245.5 C 403.679,244.858 406.846,247.525 407,253.5C 401.605,256.39 398.105,254.724 396.5,248.5C 396.685,247.416 397.018,246.416 397.5,245.5 Z"/></g>
<g><path style="opacity:1" fill="#aa1212" d="M 119.5,405.5 C 125.001,404.64 129.834,405.973 134,409.5C 138.77,415.329 138.603,420.829 133.5,426C 123.996,426.175 118.33,421.508 116.5,412C 116.84,409.489 117.84,407.322 119.5,405.5 Z"/></g>
<g><path style="opacity:1" fill="#ab1212" d="M 141.5,405.5 C 147.679,404.858 150.846,407.525 151,413.5C 145.605,416.39 142.105,414.724 140.5,408.5C 140.685,407.416 141.018,406.416 141.5,405.5 Z"/></g>
<g><path style="opacity:1" fill="#aa1212" d="M 157.5,426.5 C 176.456,425.971 187.789,434.971 191.5,453.5C 191.451,463.549 186.451,468.549 176.5,468.5C 160.435,466.269 151.101,457.102 148.5,441C 148.862,434.482 151.862,429.649 157.5,426.5 Z"/></g>
</svg>
